<?xml version="1.0" encoding="utf-8"?>
<!-- Generator: Adobe Illustrator 21.1.0, SVG Export Plug-In . SVG Version: 6.00 Build 0)  -->
<svg version="1.1" id="Layer_1" xmlns="http://www.w3.org/2000/svg" xmlns:xlink="http://www.w3.org/1999/xlink" x="0px" y="0px"
	 viewBox="0 0 117.3 47.9" style="enable-background:new 0 0 117.3 47.9;" xml:space="preserve">
<style type="text/css">
	.st0{fill:#00FF00;}
</style>
<g id="XMLID_1_">
	<path id="XMLID_30_" class="st0" d="M71.3,38.6c0-1.6-0.2-3-0.9-4.2c-1-1.6-2.9-2.6-5.2-2.6c-1.9,0-3.5,0.7-4.6,2.1v-0.8
		c0-0.7-0.5-1.2-1.2-1.2c-0.7,0-1.2,0.5-1.2,1.2v11.4c0,0.7,0.5,1.2,1.2,1.2c0.7,0,1.2-0.5,1.2-1.2v-5.8c0-1,0.2-1.9,0.8-2.8
		c0.6-1,1.9-2,3.8-2s3,0.9,3.5,2.2c0.2,0.6,0.3,1.4,0.3,2.3v6c0,0.7,0.5,1.2,1.2,1.2c0.7,0,1.2-0.5,1.2-1.2V38.6z M55.6,44.6
		c0-0.6-0.5-1.1-1.1-1.1h-3.7V33.1c0-0.7-0.5-1.2-1.2-1.2h-4.5c-0.6,0-1.1,0.5-1.1,1.1c0,0.6,0.5,1.1,1.1,1.1h3.2v9.4h-3.7
		c-0.6,0-1.1,0.5-1.1,1.1c0,0.6,0.5,1.1,1.1,1.1h9.8C55.2,45.7,55.6,45.3,55.6,44.6 M51.7,27.7c0-1.2-1-2.2-2.2-2.2
		c-1.2,0-2.2,1-2.2,2.2c0,1.2,1,2.2,2.2,2.2C50.8,29.9,51.7,28.9,51.7,27.7 M38,38.8c0,2.7-1.9,4.9-4.6,4.9c-2.7,0-4.6-2.2-4.6-4.9
		c0-2.7,1.9-4.8,4.6-4.8C36.2,34,38,36.1,38,38.8 M40.5,33.1c-0.1-0.7-0.5-1.2-1.2-1.2c-0.7,0-1.2,0.5-1.2,1.2v0.5
		c-1.2-1.1-2.8-1.8-4.6-1.8c-3.9,0-7,3.1-7,7c0,3.9,3.1,7,7,7c1.9,0,3.4-0.7,4.6-1.8v0.5c0,0.7,0.5,1.2,1.2,1.2
		c0.7,0,1.2-0.5,1.2-1.2V33.1z M23.4,37c0-0.6-0.5-1.1-1.2-1.1H16c-0.6,0-1.1,0.5-1.1,1.1s0.5,1.1,1.1,1.1h5.1v3.7
		c-1.2,1.2-2.9,2-4.9,2c-4,0-6.8-3-6.8-7.3s2.8-7.2,6.8-7.2c2.1,0,3.5,0.6,4.5,2.1c0.2,0.3,0.5,0.7,1.1,0.7c0.7,0,1.2-0.6,1.2-1.2
		c0-0.3-0.1-0.5-0.2-0.7c-1.4-2.4-3.9-3.2-6.6-3.2c-5.4,0-9.4,4-9.4,9.5s4,9.6,9.4,9.6c3,0,5.5-1.2,7.2-3.2V37z"/>
	<path id="XMLID_20_" class="st0" d="M117.3,15.4c0-2.7-2.2-3.4-4.1-3.8c-0.8-0.2-3-0.4-3.8-0.5c-1.6-0.2-2.6-0.6-2.6-1.6
		c0-0.7,0.5-1.7,3.6-1.7c1.7,0,2.9,0.4,4.1,1.1c0.2,0.1,0.6,0.3,0.8,0.3c0.6,0,1.1-0.6,1.1-1.2c0-0.4-0.2-0.7-0.6-1
		c-1.3-0.8-2.9-1.4-5.3-1.4c-3.1,0-4.8,1-5.6,2.2c-0.3,0.5-0.5,1.1-0.5,1.7c0,2.6,2.1,3.4,4.4,3.7c0.7,0.1,3.3,0.4,4,0.5
		c1.3,0.3,2.1,0.6,2.1,1.7c0,0.5-0.4,1.3-1.4,1.7c-0.7,0.3-1.6,0.4-2.8,0.4c-2.6,0-3.9-1-4.8-1.7c-0.3-0.2-0.6-0.4-0.8-0.4
		c-0.8,0-1.2,0.6-1.2,1.2c0,0.3,0.2,0.6,0.4,0.8c0.9,0.9,3,2.2,6.2,2.2c1.5,0,3.1-0.2,4.3-0.7C116.3,18.3,117.3,17.1,117.3,15.4
		 M100.9,15.4c0-2.7-2.2-3.4-4.1-3.8c-0.8-0.2-3-0.4-3.8-0.5c-1.6-0.2-2.6-0.6-2.6-1.6c0-0.7,0.5-1.7,3.6-1.7c1.7,0,2.9,0.4,4.1,1.1
		C98.4,9,98.7,9.1,99,9.1c0.6,0,1.1-0.6,1.1-1.2c0-0.4-0.2-0.7-0.6-1c-1.3-0.8-2.9-1.4-5.3-1.4c-3.1,0-4.8,1-5.6,2.2
		C88.1,8.4,88,9,88,9.6c0,2.6,2.1,3.4,4.4,3.7c0.7,0.1,3.3,0.4,4,0.5c1.3,0.3,2.1,0.6,2.1,1.7c0,0.5-0.4,1.3-1.4,1.7
		c-0.7,0.3-1.6,0.4-2.8,0.4c-2.6,0-3.9-1-4.8-1.7c-0.3-0.2-0.6-0.4-0.8-0.4c-0.8,0-1.2,0.6-1.2,1.2c0,0.3,0.2,0.6,0.4,0.8
		c0.9,0.9,3,2.2,6.2,2.2c1.5,0,3.1-0.2,4.3-0.7C99.9,18.3,100.9,17.1,100.9,15.4 M82.2,11.5h-8.3c0.3-2.3,2.2-3.7,4.3-3.7
		C80.4,7.8,82,9.4,82.2,11.5 M84.7,12.4c0-3.9-2.8-6.8-6.5-6.8c-3.8,0-6.8,2.9-6.8,7c0,4,3,7,6.9,7c1.9,0,3.8-0.8,5.1-2.3
		c0.2-0.2,0.3-0.5,0.3-0.8c0-0.7-0.5-1.1-1.1-1.1c-0.4,0-0.6,0.2-0.9,0.5c-1.1,1.1-2.1,1.6-3.6,1.6c-2.3,0-4-1.7-4.3-4h9.7
		C84.3,13.6,84.7,13,84.7,12.4 M70.6,18.5c0-0.6-0.5-1.1-1.1-1.1h-3.7V2.2c0-0.7-0.5-1.2-1.2-1.2h-4.5c-0.6,0-1.1,0.5-1.1,1.1
		c0,0.6,0.5,1.1,1.1,1.1h3.2v14.2h-3.7c-0.6,0-1.1,0.5-1.1,1.1c0,0.6,0.5,1.1,1.1,1.1h9.8C70.1,19.6,70.6,19.1,70.6,18.5 M53.3,12.7
		c0,2.8-1.9,4.9-4.6,4.9c-2.7,0-4.6-2.2-4.6-4.9c0-2.7,1.9-4.8,4.6-4.8C51.4,7.8,53.3,9.9,53.3,12.7 M55.7,18.4V2.2
		c0-0.7-0.5-1.2-1.2-1.2c-0.7,0-1.2,0.5-1.2,1.2v5.2c-1.2-1.1-2.8-1.8-4.6-1.8c-4,0-7,3.1-7,7c0,3.9,3.1,7,7,7
		c1.9,0,3.4-0.7,4.6-1.8v0.5c0,0.7,0.5,1.2,1.2,1.2C55.2,19.6,55.7,19,55.7,18.4 M38.7,12.5c0-1.6-0.2-3-0.9-4.2
		c-1-1.6-2.9-2.6-5.2-2.6c-1.9,0-3.5,0.7-4.6,2.1V7c0-0.7-0.5-1.2-1.2-1.2c-0.7,0-1.2,0.5-1.2,1.2v11.4c0,0.7,0.5,1.2,1.2,1.2
		c0.7,0,1.2-0.5,1.2-1.2v-5.8c0-1,0.2-1.9,0.8-2.8c0.6-1,1.9-2,3.8-2c1.8,0,3,0.9,3.5,2.2c0.2,0.6,0.3,1.4,0.3,2.3v6
		c0,0.7,0.5,1.2,1.2,1.2c0.7,0,1.2-0.5,1.2-1.2V12.5z"/>
	<path id="XMLID_18_" class="st0" d="M22.6,2.2c0-0.6-0.5-1.2-1.2-1.2H9.3C8.6,1,8,1.6,8,2.3v6.8H1.2C0.5,9.1,0,9.6,0,10.3
		s0.5,1.2,1.2,1.2H8v6.9c0,0.7,0.6,1.3,1.3,1.3h12.2c0.6,0,1.2-0.5,1.2-1.2c0-0.6-0.5-1.2-1.2-1.2H10.6v-5.8h6.9
		c0.6,0,1.2-0.5,1.2-1.2s-0.5-1.2-1.2-1.2h-6.9V3.3h10.8C22.1,3.3,22.6,2.8,22.6,2.2"/>
</g>
</svg>
